# xmcd CD database file
#
# Track frame offsets:
#	150
#	62124
#	101015
#	158520
#	193830
#	247742
#	270074
#
# Disc length: 4116 seconds
#
# Revision: 0
# Processed by: cddbd v1.5.2PL0 Copyright (c) Steve Scherf et al.
# Submitted via: CDex 1.70beta2
#
DISCID=4e101207
DTITLE=Various Artist - The Atlantic Jazz Legends 50's-60's (Vol.2)
DYEAR=2004
DGENRE=Jazz
TTITLE0=John Coltrane - My Favorite Things
TTITLE1=Herbie Mann - Comin' Home Bany
TTITLE2=Max Roach - Nommo
TTITLE3=Freddie Hubbard - Little Sunflower
TTITLE4=Charles Lloyd - Autumn Sequence
TTITLE5=Rahsaan Roland Kirk - The Inflated Tear
TTITLE6=Les McCann and Eddie Harris - Compered To What
EXTD=YEAR: 2004
EXTT0=
EXTT1=
EXTT2=
EXTT3=
EXTT4=
EXTT5=
EXTT6=
PLAYORDER=
